Exact Audio Copy V0.99 prebeta 5 from 4. May 2009

Отчёт EAC об извлечении, выполненном 3. июня 2009, 10:49

Unknown Artist / Unknown Title

Дисковод: Optiarc DVD RW AD-7200S   Adapter: 2  ID: 0

Режим чтения                 : Достоверность
Использование точного потока : Да
Отключение кэша аудио        : Да
Использование указателей C2  : Нет

Коррекция смещения при чтении                     : 48
Способность читать области Lead-in и Lead-out     : Нет
Заполнение пропущенных сэмплов тишиной            : Да
Удаление блоков с тишиной в начале и конце        : Нет
При вычислениях CRC использовались нулевые сэмплы : Да
Интерфейс                                         : Установленный внешний ASPI-интерфейс

Выходной формат          : Monkey's Audio (без потерь)
Выбранный битрейт        : Normal Lossless Compression
Качество                 : Высокий
Добавление ID3-тэга      : Да
Утилита сжатия           : C:\Program Files\Exact Audio Copy\MAC.exe


TOC извлечённого CD

     Трек |   Старт  | Длительность | Начальный сектор | Конечный сектор 
    ---------------------------------------------------------------------
       1  |  0:00.33 |    3:04.12   |          33      |      13844      
       2  |  3:04.45 |    3:11.63   |       13845      |      28232      
       3  |  6:16.33 |    3:07.50   |       28233      |      42307      
       4  |  9:24.08 |    2:44.12   |       42308      |      54619      
       5  | 12:08.20 |    2:33.63   |       54620      |      66157      
       6  | 14:42.08 |    2:53.37   |       66158      |      79169      
       7  | 17:35.45 |    2:53.13   |       79170      |      92157      
       8  | 20:28.58 |    2:49.50   |       92158      |     104882      
       9  | 23:18.33 |    3:18.62   |      104883      |     119794      
      10  | 26:37.20 |    2:41.13   |      119795      |     131882      
      11  | 29:18.33 |    3:04.37   |      131883      |     145719      
      12  | 32:22.70 |    3:07.25   |      145720      |     159769      


Характеристики диапазона извлечения и сообщения об ошибках

Выбранный диапазон

     Имя файла D:\Music\RIPs\ABBA\ABBA - 1973 - Ring Ring\ABBA - 1973 - Ring Ring.wav

     Пиковый уровень 98.8 %
     Качество диапазона 100.0 %
     CRC теста EFCCED54
     CRC копии EFCCED54
     Копирование... OK

Ошибок не произошло

Конец отчёта
